{
  "accessors": [
    {
      "bufferView": 1,
      "componentType": 5126,
      "count": 28,
      "max": [
        0.8388100266456604,
        0.19176000356674194,
        14.117050170898438
      ],
      "min": [
        -0.8388100266456604,
        -0.19176000356674194,
        0.509630024433136
      ],
      "type": "VEC3"
    },
    {
      "bufferView": 1,
      "byteOffset": 336,
      "componentType": 5126,
      "count": 28,
      "max": [
        0.22285938262939453,
        0.9748473167419434,
        0.1520996391773224
      ],
      "min": [
        -0.22285938262939453,
        -0.9748473167419434,
        -0.002559992950409651
      ],
      "type": "VEC3"
    },
    {
      "bufferView": 0,
      "componentType": 5125,
      "count": 36,
      "type": "SCALAR"
    },
    {
      "bufferView": 1,
      "byteOffset": 672,
      "componentType": 5126,
      "count": 416,
      "max": [
        0.323419988155365,
        0.323419988155365,
        -0.29451999068260193
      ],
      "min": [
        -0.323419988155365,
        -0.323419988155365,
        -3.41867995262146
      ],
      "type": "VEC3"
    },
    {
      "bufferView": 1,
      "byteOffset": 5664,
      "componentType": 5126,
      "count": 416,
      "max": [
        0.959108293056488,
        0.959108293056488,
        0.8961424231529236
      ],
      "min": [
        -0.959108293056488,
        -0.959108293056488,
        -0.8622013330459595
      ],
      "type": "VEC3"
    },
    {
      "bufferView": 0,
      "byteOffset": 144,
      "componentType": 5125,
      "count": 624,
      "type": "SCALAR"
    },
    {
      "bufferView": 1,
      "byteOffset": 10656,
      "componentType": 5126,
      "count": 111,
      "max": [
        2.2355799674987793,
        0.5172899961471558,
        1.0402799844741821
      ],
      "min": [
        -2.2355799674987793,
        -0.5172899961471558,
        -4.474480152130127
      ],
      "type": "VEC3"
    },
    {
      "bufferView": 1,
      "byteOffset": 11988,
      "componentType": 5126,
      "count": 111,
      "max": [
        1.0,
        1.0,
        1.0
      ],
      "min": [
        -1.0,
        -1.0,
        -1.0
      ],
      "type": "VEC3"
    },
    {
      "bufferView": 0,
      "byteOffset": 2640,
      "componentType": 5125,
      "count": 360,
      "type": "SCALAR"
    }
  ],
  "asset": {
    "extras": {
      "author": "Fermin Morales (https://sketchfab.com/Talos)",
      "license": "CC-BY-4.0 (http://creativecommons.org/licenses/by/4.0/)",
      "source": "https://sketchfab.com/3d-models/low-poly-sword-011bf47221c24382b6717b0ee2df8816",
      "title": "Low Poly Sword"
    },
    "generator": "Sketchfab-12.67.0",
    "version": "2.0"
  },
  "bufferViews": [
    {
      "buffer": 0,
      "byteLength": 4080,
      "name": "floatBufferViews",
      "target": 34963
    },
    {
      "buffer": 0,
      "byteLength": 13320,
      "byteOffset": 4080,
      "byteStride": 12,
      "name": "floatBufferViews",
      "target": 34962
    }
  ],
  "buffers": [
    {
      "byteLength": 17400,
      "uri": "scene.bin"
    }
  ],
  "materials": [
    {
      "doubleSided": true,
      "name": "Material",
      "pbrMetallicRoughness": {
        "baseColorFactor": [
          0.190484181,
          0.2018997073,
          0.2018997073,
          1.0
        ],
        "roughnessFactor": 0.4921875
      }
    },
    {
      "doubleSided": true,
      "name": "mango.001",
      "pbrMetallicRoughness": {
        "baseColorFactor": [
          0.0607189052,
          0.0225037206,
          0.0086118933,
          1.0
        ],
        "metallicFactor": 0.0,
        "roughnessFactor": 0.6
      }
    },
    {
      "doubleSided": true,
      "name": "material",
      "pbrMetallicRoughness": {
        "baseColorFactor": [
          1.0,
          0.5170888901,
          0.0,
          1.0
        ],
        "metallicFactor": 0.0,
        "roughnessFactor": 0.6
      }
    }
  ],
  "meshes": [
    {
      "name": "Cube_0",
      "primitives": [
        {
          "attributes": {
            "NORMAL": 1,
            "POSITION": 0
          },
          "indices": 2,
          "material": 0,
          "mode": 4
        }
      ]
    },
    {
      "name": "Cube_1",
      "primitives": [
        {
          "attributes": {
            "NORMAL": 4,
            "POSITION": 3
          },
          "indices": 5,
          "material": 1,
          "mode": 4
        }
      ]
    },
    {
      "name": "Cube_2",
      "primitives": [
        {
          "attributes": {
            "NORMAL": 7,
            "POSITION": 6
          },
          "indices": 8,
          "material": 2,
          "mode": 4
        }
      ]
    }
  ],
  "nodes": [
    {
      "children": [
        1
      ],
      "matrix": [
        0.1752922534942627,
        0.0,
        0.0,
        0.0,
        0.0,
        3.8922699173552e-17,
        -0.1752922534942627,
        0.0,
        0.0,
        0.1752922534942627,
        3.8922699173552e-17,
        0.0,
        0.0,
        0.0,
        0.0,
        1.0
      ],
      "name": "Sketchfab_model"
    },
    {
      "children": [
        2,
        4
      ],
      "name": "Root"
    },
    {
      "children": [
        3
      ],
      "matrix": [
        -0.29086000000000006,
        0.9551700000000001,
        -0.05519000000000001,
        0.0,
        -0.7711,
        -0.19988000000000003,
        0.6045200000000001,
        0.0,
        0.5663900000000001,
        0.21839000000000003,
        0.7946700000000001,
        0.0,
        4.076250000000001,
        1.00545,
        5.903860000000001,
        1.0
      ],
      "name": "Lamp"
    },
    {
      "name": "Lamp"
    },
    {
      "children": [
        5,
        6,
        7
      ],
      "name": "Cube"
    },
    {
      "mesh": 0,
      "name": "Cube_0"
    },
    {
      "mesh": 1,
      "name": "Cube_1"
    },
    {
      "mesh": 2,
      "name": "Cube_2"
    }
  ],
  "scene": 0,
  "scenes": [
    {
      "name": "Sketchfab_Scene",
      "nodes": [
        0
      ]
    }
  ]
}
